<svg width="18" height="10" viewBox="0 0 18 10" fill="none" xmlns="http://www.w3.org/2000/svg">
<path d="M8.81223 9.87823C8.60963 9.87909 8.40888 9.84336 8.22175 9.77313C8.03463 9.7029 7.8649 9.59959 7.72254 9.46925L0.588121 2.96284C0.400219 2.70081 0.315056 2.38932 0.346282 2.0783C0.377508 1.76729 0.523315 1.47476 0.760332 1.2476C0.99735 1.02044 1.31185 0.871809 1.65343 0.825521C1.99501 0.779234 2.34389 0.837976 2.64415 0.992329L8.81223 6.56925L14.9803 0.992329C15.2806 0.837976 15.6294 0.779234 15.971 0.825521C16.3126 0.871809 16.6271 1.02044 16.8641 1.2476C17.1011 1.47476 17.2469 1.76729 17.2782 2.0783C17.3094 2.38932 17.2242 2.70081 17.0363 2.96284L9.84024 9.46925C9.5678 9.71913 9.20005 9.86543 8.81223 9.87823Z" fill="black"/>
</svg>
