<svg width="25" height="25" viewBox="0 0 25 25" fill="none" xmlns="http://www.w3.org/2000/svg">
<path d="M12.2244 22.2308C13.3244 22.2308 14.2244 21.3308 14.2244 20.2308H10.2244C10.2244 21.3308 11.1244 22.2308 12.2244 22.2308ZM18.2244 16.2308V11.2308C18.2244 8.16077 16.5944 5.59077 13.7244 4.91077V4.23077C13.7244 3.40077 13.0544 2.73077 12.2244 2.73077C11.3944 2.73077 10.7244 3.40077 10.7244 4.23077V4.91077C7.86437 5.59077 6.22437 8.15077 6.22437 11.2308V16.2308L4.22437 18.2308V19.2308H20.2244V18.2308L18.2244 16.2308ZM16.2244 17.2308H8.22437V11.2308C8.22437 8.75077 9.73437 6.73077 12.2244 6.73077C14.7144 6.73077 16.2244 8.75077 16.2244 11.2308V17.2308Z" fill="#3A3541" fill-opacity="0.87"/>
</svg>
