<svg width="18" height="11" viewBox="0 0 18 11" fill="none" xmlns="http://www.w3.org/2000/svg">
<path d="M8.99982 10.2084C8.79453 10.2094 8.59111 10.1694 8.4015 10.0907C8.2119 10.0119 8.03992 9.89616 7.89566 9.7501L0.66649 2.45843C0.476093 2.16477 0.389799 1.81569 0.421439 1.46714C0.45308 1.11859 0.600823 0.790757 0.840989 0.536181C1.08115 0.281606 1.39983 0.115033 1.74595 0.063159C2.09207 0.0112854 2.44558 0.0771163 2.74982 0.250099L8.99982 6.5001L15.2498 0.250099C15.5541 0.0771163 15.9076 0.0112854 16.2537 0.063159C16.5998 0.115033 16.9185 0.281606 17.1587 0.536181C17.3988 0.790757 17.5466 1.11859 17.5782 1.46714C17.6098 1.81569 17.5236 2.16477 17.3332 2.45843L10.0415 9.7501C9.76543 10.0301 9.39279 10.1941 8.99982 10.2084Z" fill="black"/>
</svg>
