<svg width="18" height="11" viewBox="0 0 18 11" fill="none" xmlns="http://www.w3.org/2000/svg">
<path d="M8.99952 10.2084C8.79423 10.2094 8.59081 10.1694 8.4012 10.0907C8.21159 10.0119 8.03961 9.89616 7.89535 9.7501L0.666185 2.45843C0.475787 2.16477 0.389494 1.81569 0.421134 1.46714C0.452775 1.11859 0.600518 0.790757 0.840683 0.536181C1.08085 0.281606 1.39953 0.115033 1.74564 0.063159C2.09176 0.0112854 2.44527 0.0771163 2.74952 0.250099L8.99952 6.5001L15.2495 0.250099C15.5538 0.0771163 15.9073 0.0112854 16.2534 0.063159C16.5995 0.115033 16.9182 0.281606 17.1584 0.536181C17.3985 0.790757 17.5463 1.11859 17.5779 1.46714C17.6095 1.81569 17.5232 2.16477 17.3329 2.45843L10.0412 9.7501C9.76512 10.0301 9.39249 10.1941 8.99952 10.2084Z" fill="black"/>
</svg>
