<?xml version="1.0" standalone="no"?>
<!DOCTYPE svg PUBLIC "-//W3C//DTD SVG 20010904//EN"
 "http://www.w3.org/TR/2001/REC-SVG-20010904/DTD/svg10.dtd">
<svg version="1.0" xmlns="http://www.w3.org/2000/svg"
 width="2048.000000pt" height="2048.000000pt" viewBox="0 0 2048.000000 2048.000000"
 preserveAspectRatio="xMidYMid meet">
<metadata>
Created by potrace 1.14, written by Peter Selinger 2001-2017
</metadata>
<g transform="translate(0.000000,2048.000000) scale(0.100000,-0.100000)"
fill="#000000" stroke="none">
<path d="M9848 20475 c-2 -2 -66 -6 -143 -9 -77 -4 -162 -8 -190 -11 -27 -2
-84 -6 -125 -10 -41 -3 -120 -10 -175 -16 -55 -6 -118 -12 -140 -14 -22 -2
-60 -6 -85 -10 -25 -3 -110 -15 -190 -26 -80 -11 -197 -29 -260 -40 -63 -12
-128 -23 -145 -25 -16 -2 -41 -6 -55 -9 -24 -4 -123 -25 -145 -30 -15 -3 -88
-17 -105 -20 -8 -2 -76 -17 -150 -35 -74 -17 -142 -33 -150 -35 -214 -48 -853
-239 -955 -284 -11 -5 -67 -26 -125 -46 -99 -36 -332 -125 -375 -145 -11 -5
-90 -39 -175 -75 -521 -224 -1147 -565 -1583 -862 -43 -29 -82 -53 -87 -53 -4
0 -10 -4 -12 -8 -1 -5 -48 -39 -103 -77 -146 -100 -462 -338 -579 -435 -11
-10 -61 -51 -111 -93 -515 -428 -1011 -934 -1436 -1462 -110 -138 -303 -393
-384 -510 -128 -183 -370 -554 -411 -630 -6 -11 -40 -69 -76 -130 -35 -60 -86
-150 -112 -200 -27 -49 -52 -94 -56 -100 -10 -13 -227 -447 -268 -535 -16 -36
-44 -99 -62 -140 -18 -41 -44 -100 -57 -130 -101 -223 -278 -707 -373 -1020
-22 -74 -47 -155 -55 -180 -12 -40 -71 -257 -80 -299 -2 -9 -15 -61 -29 -117
-31 -124 -112 -512 -121 -574 -3 -25 -8 -52 -10 -60 -2 -8 -7 -31 -10 -50 -3
-19 -10 -60 -15 -90 -5 -30 -12 -75 -15 -100 -3 -25 -10 -70 -15 -100 -5 -30
-11 -77 -14 -105 -4 -27 -8 -66 -11 -85 -2 -19 -7 -55 -9 -80 -3 -25 -7 -70
-11 -100 -6 -61 -11 -117 -20 -235 -4 -44 -8 -94 -10 -111 -26 -230 -26 -1188
0 -1449 2 -22 7 -76 10 -120 3 -44 8 -98 10 -120 2 -22 7 -69 10 -105 6 -67 9
-90 20 -175 4 -27 9 -62 11 -78 4 -34 24 -182 30 -220 2 -15 6 -39 8 -55 2
-15 9 -56 16 -92 6 -36 13 -76 15 -90 19 -109 28 -157 45 -235 10 -49 21 -105
25 -122 3 -18 12 -63 21 -100 9 -38 18 -79 20 -93 9 -47 76 -305 121 -460 24
-85 46 -163 48 -172 2 -9 44 -138 93 -285 80 -239 238 -656 305 -804 38 -83
81 -178 108 -239 26 -60 261 -527 301 -600 163 -292 298 -516 460 -760 524
-787 1107 -1449 1842 -2093 73 -64 349 -290 437 -357 359 -276 860 -612 1159
-777 30 -17 87 -48 125 -70 248 -141 602 -316 890 -440 83 -36 164 -71 180
-78 17 -7 73 -29 125 -50 52 -20 104 -40 115 -46 175 -81 992 -332 1315 -404
202 -45 379 -81 490 -101 47 -8 96 -17 110 -20 37 -6 154 -25 255 -40 28 -5
52 -9 55 -9 3 -1 37 -5 75 -9 39 -5 79 -10 90 -12 11 -2 52 -7 90 -10 39 -3
72 -8 75 -9 3 -2 46 -6 95 -10 50 -4 100 -8 113 -10 12 -2 64 -6 115 -10 50
-3 113 -8 139 -10 253 -22 1019 -22 1283 0 22 2 83 6 135 9 52 4 113 8 135 11
22 2 92 9 155 15 63 6 126 13 140 15 14 2 52 7 85 11 33 3 67 8 76 9 9 2 40 6
70 10 61 7 102 13 139 20 14 3 41 7 60 10 19 3 60 10 90 15 30 5 71 12 90 15
19 3 42 8 50 10 8 2 31 7 50 10 19 3 58 10 85 15 28 6 61 12 75 15 31 6 93 19
100 20 3 1 23 5 45 10 45 10 41 9 75 18 14 4 84 21 155 38 277 65 883 246 970
290 12 6 27 11 35 13 8 2 22 6 30 9 8 3 60 23 115 43 55 20 119 45 142 55 23
11 44 19 48 19 6 0 228 91 290 120 22 10 83 37 135 60 255 114 639 311 895
459 107 62 82 47 285 172 279 173 545 356 810 558 119 90 322 253 346 276 6 5
29 25 52 43 81 66 260 225 401 356 69 64 387 383 462 462 136 145 283 312 447
509 98 117 338 429 382 495 8 13 25 35 36 49 38 47 336 495 389 584 5 9 44 74
86 145 42 70 87 147 100 172 13 25 26 47 29 50 3 3 15 23 27 45 359 663 586
1194 813 1900 34 108 139 474 146 515 3 14 11 48 19 75 8 28 24 93 36 145 11
52 22 102 24 110 5 22 66 320 71 350 9 46 24 135 30 174 3 21 7 48 10 59 2 12
6 39 9 62 3 22 10 67 15 100 5 33 12 80 15 105 3 25 7 56 10 70 2 14 7 54 10
90 4 36 8 76 10 90 2 14 7 59 11 100 3 41 8 89 9 105 2 17 7 77 10 135 4 58 9
121 10 140 27 295 22 1029 -9 1405 -11 138 -17 203 -21 245 -3 25 -7 70 -10
100 -3 30 -7 69 -10 85 -2 17 -7 53 -10 80 -6 46 -28 208 -41 295 -18 116 -69
402 -91 500 -13 63 -27 126 -29 140 -25 134 -149 600 -225 845 -59 189 -177
526 -213 610 -8 17 -26 64 -41 105 -15 41 -32 79 -36 85 -5 5 -9 15 -9 22 0 7
-11 36 -24 65 -14 29 -47 105 -74 168 -170 393 -402 836 -650 1240 -90 147
-329 506 -396 596 -17 23 -40 55 -51 70 -63 89 -207 277 -318 414 -68 84 -172
209 -212 254 -5 6 -44 49 -85 96 -188 214 -502 535 -715 731 -38 35 -72 66
-75 69 -3 3 -39 35 -80 70 -41 36 -79 70 -85 76 -18 21 -287 242 -405 334 -36
27 -81 63 -100 78 -19 15 -51 39 -70 52 -19 13 -37 27 -40 30 -23 28 -618 432
-715 486 -11 6 -74 44 -140 84 -192 116 -521 294 -773 417 -128 62 -235 113
-237 113 -3 0 -35 14 -72 31 -359 165 -935 374 -1353 491 -131 37 -397 105
-430 111 -14 3 -43 10 -65 15 -22 6 -51 13 -65 16 -14 3 -90 19 -170 36 -127
26 -243 48 -345 65 -69 12 -91 15 -115 20 -14 3 -49 7 -78 10 -29 2 -56 7 -60
9 -4 2 -32 7 -62 10 -30 4 -71 8 -90 11 -111 15 -169 21 -250 29 -36 4 -85 9
-110 11 -87 9 -158 15 -385 31 -72 5 -962 13 -967 9z"/>
</g>
</svg>
